<svg id="visual" viewBox="0 0 900 600" width="900" height="600" xmlns="http://www.w3.org/2000/svg" xmlns:xlink="http://www.w3.org/1999/xlink" version="1.1"><rect x="0" y="0" width="900" height="600" fill="#fff"></rect><path d="M0 102L37.5 108.7C75 115.3 150 128.7 225 136.5C300 144.3 375 146.7 450 137C525 127.3 600 105.7 675 101.2C750 96.7 825 109.3 862.5 115.7L900 122L900 0L862.5 0C825 0 750 0 675 0C600 0 525 0 450 0C375 0 300 0 225 0C150 0 75 0 37.5 0L0 0Z" fill="#5cd3a7" stroke-linecap="round" stroke-linejoin="miter"></path></svg>